# xmcd
#
# Track frame offsets:
# 150
# 15979
# 33810
# 51323
# 65908
# 83283
# 97061
# 111712
# 129684
# 148075
# 166884
# 186134
#
# Disc length: 2555 seconds
#
# Revision: 1
# Processed by: cddbd v1.5.1PL0 Copyright (c) Steve Scherf et al.
# Submitted via: CedeCatalogueitor 2.6.0.6 http://personales.ya.com/cdcatalogueitor
#
DISCID=a509f90c
DTITLE=Amerie - All I Have
DYEAR=1900
DGENRE=
TTITLE0=Why Don´t We Fall In Love
TTITLE1=Talkin´to Me
TTITLE2=Nothing Like Loving You
TTITLE3=Can´t Let Go
TTITLE4=Need You Tonight
TTITLE5=Got To Be There
TTITLE6=I Juest Died
TTITLE7=Hatin´ On You
TTITLE8=Float
TTITLE9=Show Me
TTITLE10=All I Have
TTITLE11=Outro
EXTD=
EXTT0=
EXTT1=
EXTT2=
EXTT3=
EXTT4=
EXTT5=
EXTT6=
EXTT7=
EXTT8=
EXTT9=
EXTT10=
EXTT11=
PLAYORDER=
